<svg id="user_1_" data-name="user (1)" xmlns="http://www.w3.org/2000/svg" width="35" height="35" viewBox="0 0 35 35">
  <path id="user_1_2" data-name="user (1)" d="M29.874,5.126A17.5,17.5,0,0,0,5.125,29.874,17.5,17.5,0,0,0,29.874,5.126ZM8.773,30.241a8.861,8.861,0,0,1,17.453,0,15.416,15.416,0,0,1-17.453,0ZM11.935,15.3A5.564,5.564,0,1,1,17.5,20.868,5.571,5.571,0,0,1,11.935,15.3ZM28,28.819a10.929,10.929,0,0,0-6.354-7.133,7.615,7.615,0,1,0-8.3,0A10.928,10.928,0,0,0,7,28.818a15.449,15.449,0,1,1,21.006,0Zm0,0" transform="translate(0)"/>
</svg>
